# xmcd
#
# Track frame offsets:
#  150
#  20228
#  55983
#  83335
#  107528
#  128288
#  148265
#  162541
#  178232
#  205135
#  238375
#
# Disc length: 3274 seconds
#
# Revision: 0
# Processed by: cddbd v1.5.1PL0 Copyright (c) Steve Scherf et al.
# Submitted via: Collectorz.com_Music_Collector 6.9
#
DISCID=990cc80b
DTITLE=Crosscut Saw - In Debt? You Bet!
DYEAR=1900
DGENRE=Blues
TTITLE0=Someday Baby
TTITLE1=Should I Call You
TTITLE2=Swamp Thing
TTITLE3=Leave My Little Girl Alone
TTITLE4=Please Mr Engineer
TTITLE5=24-7
TTITLE6=On My Knees
TTITLE7=I Don't Care no More 
TTITLE8=Champagne and Reefer
TTITLE9=Smell A Rat
TTITLE10=Unknown
EXTD=
EXTT0=
EXTT1=
EXTT2=
EXTT3=
EXTT4=
EXTT5=
EXTT6=
EXTT7=
EXTT8=
EXTT9=
EXTT10=
PLAYORDER=
